<?xml version="1.0" encoding="utf-8"?>
<!-- Generator: Adobe Illustrator 19.2.1, SVG Export Plug-In . SVG Version: 6.00 Build 0)  -->
<svg version="1.1" id="layer" xmlns="http://www.w3.org/2000/svg" xmlns:xlink="http://www.w3.org/1999/xlink" x="0px" y="0px"
	 viewBox="0 0 652 652" style="enable-background:new 0 0 652 652;" xml:space="preserve">
<style type="text/css">
	.st0{fill:#ffffff;}
</style>
<g id="Tutors-Navigation">
	<g id="Extracted-Assets" transform="translate(-14.000000, -123.000000)">
		<g id="CheggTutorsLogo-TransparentBG" transform="translate(14.000000, 123.000000)">
			<path id="Fill-7" class="st0" d="M604.6,273.4c-9.1-0.1-16.3,6.9-16.4,16c-0.1,9.1,7.1,16.4,16,16.4c9,0.1,16.1-7.1,16.2-16.1
				C620.5,280.6,613.5,273.5,604.6,273.4L604.6,273.4z M604.4,302.5c-7,0-12.2-5.8-12.2-13c0.1-7.1,5.4-12.9,12.2-12.8
				c7,0.1,12.1,5.9,12,13.1C616.4,296.9,611.2,302.7,604.4,302.5L604.4,302.5z"/>
			<path id="Fill-8" class="st0" d="M608,290.1v-0.2c1.8-0.6,3.3-1.8,3.3-3.8c0-1.6-0.6-2.8-1.6-3.5c-1.1-0.8-2.4-1.3-5.3-1.3
				c-2.6,0-4.6,0.2-6,0.4l-0.1,16.2l3.6,0.1l0.1-6.5l1.7,0.1c2,0,2.9,0.8,3.2,2.5c0.5,2,0.7,3.4,1.2,3.9l3.9,0.1
				c-0.3-0.6-0.7-1.5-1.2-4C610.3,291.9,609.6,290.6,608,290.1L608,290.1z M603.7,288.9H602v-4.7c0.4-0.1,1.1-0.2,2-0.2
				c2.3,0.1,3.3,1,3.3,2.5C607.4,288.2,605.7,288.9,603.7,288.9L603.7,288.9z"/>
			<path id="Fill-9" class="st0" d="M117.8,324.4c-7.8,1.2-11.2,11-16.8,16.1c-5.9,6.1-17.5,6.1-24.7,2.3
				c-13.9-8.1-14.3-24.3-14.1-39.4c0-13.1,5.6-26.8,16.9-32.6c15.3-6.5,25.3,8.3,34.8,17.4c9.5,3.4,22.1,4.3,30.7-2.6
				c2.8-5.7,0.7-12.9-1.9-17.9c-4.2-9.5-13.9-20.2-23.1-23.9c-19.2-10-46.6-10-65.9,0c-14.6,7.9-26.5,23.9-30.3,39.8
				c-7,28-2.6,59,18,78.9c19.6,18.3,52.5,19.5,76.3,10c15-7.4,28.2-23.7,29.1-41.2C142.8,319.6,127.7,325,117.8,324.4"/>
			<path id="Fill-10" class="st0" d="M245.4,282.5c-12.2-13.6-31.6-11.1-46.5-5.8c-14.3-3.9-6-23.9-12.3-34.2
				c-7.8-7.2-25.3-7.9-31.6,1.8c-3.3,31.4-1,64.9-1.8,97.4c1.7,9.7-2.1,22.4,6.1,29.1c8.3,3.7,19,3,27.2-1.6
				c5.4-15.2,2.2-34.5,4.4-51.3l5.8-10.9c3.6-2.1,8-4.1,12.4-2.1c13.9,7.7,8.5,26.5,9.7,41.1c0.2,9.3-1.2,19.3,6.3,25.5
				c7,2,13.9,2.3,21.4,0.9c4.6-1.4,8-6.6,8.5-11.4C253.9,334.1,260.9,303.1,245.4,282.5"/>
			<path id="Fill-11" class="st0" d="M281.2,282.5c-16.4,12.4-21.4,32.5-18.7,53.3c3.1,16.3,15.4,32.8,31.1,36.7
				c22.6,5.6,50.7,4.7,65-16.7c1.9-3.9,1.4-9.5-3.1-12c-11.9-6.5-23.4,1.8-33.8,6.2c-6.5,2.4-13.9,0.5-17.9-5.5
				c-2.2-4.3,0-9.7,4.2-11.2c19.4-5.5,40.1,10.1,56.5-4.1c5.8-12.9-0.5-26.2-6.6-36.6C340,268.7,303.3,265.8,281.2,282.5
				L281.2,282.5z M324.4,308.8c-4.2,3.4-11.6,5.6-16.6,1.6c-3.9-1.2-3.8-6.2-2.4-9c4.2-5.5,14.8-5.5,18.7-0.5
				C324.8,303.1,326.5,306.3,324.4,308.8L324.4,308.8z"/>
			<path id="Fill-12" class="st0" d="M471.4,278.4c-9.2-6.5-21.9-2.7-31.1,0.2c-15.7-5.6-38.9-11-52.5,3.4
				c-11.6,11.1-15.2,26.5-14.3,43.4c0.2,10.6,3.6,20.7,10,28.7c3.5,4.5,7.9,8.6,13.2,11.5c10.4,7.7,23.6,2,35,0.5
				c4,0.7,7.3,5.8,5.1,10.3c-2.6,6-8.9,9.1-14.8,7.7c-10.2-7.5-26-7.7-37.2-2c-0.9,3.4-2.2,6.6,0,10.3c1.3,1.2,2.5,2.3,3.7,3.6
				c18.4,14.9,45.9,12.4,66.4,5.9c9.7-4.7,16.7-15.1,18.6-25.5c2.5-29.1,2.9-60.6,1.5-90.6L471.4,278.4L471.4,278.4z M430.6,338.3
				c-4.4,2.5-9.2,1.4-13.6-0.9c-4-4.7-7.3-10-6.6-17.4c-0.5-6.1,2-11,5.9-15.3c4.8-4,13-4.5,17.5,0.7c4.1,4.3,5.2,9.9,5.8,15.8
				C439.1,327.9,436.2,334.8,430.6,338.3L430.6,338.3z"/>
			<path id="Fill-13" class="st0" d="M580.1,278.4c-9.2-6.5-21.9-2.7-31.1,0.2c-15.6-5.6-38.9-11-52.5,3.4
				c-11.6,11.1-15.2,26.5-14.3,43.4c0.2,10.6,3.6,20.7,10,28.7c3.5,4.5,7.9,8.6,13.2,11.5c10.4,7.7,23.6,2,35,0.5
				c4.1,0.7,7.3,5.8,5.1,10.3c-2.6,6-8.9,9.1-14.8,7.7c-10.2-7.5-26-7.7-37.2-2c-0.9,3.4-2.2,6.6,0,10.3c1.3,1.2,2.5,2.3,3.7,3.6
				c18.4,14.9,45.9,12.4,66.4,5.9c9.7-4.7,16.7-15.1,18.6-25.5c2.5-29.1,2.9-60.6,1.5-90.6L580.1,278.4L580.1,278.4z M539.4,338.3
				c-4.4,2.5-9.2,1.4-13.6-0.9c-4.1-4.7-7.3-10-6.6-17.4c-0.5-6.1,2-11,5.9-15.3c4.8-4,13.1-4.5,17.5,0.7c4.1,4.3,5.2,9.9,5.8,15.8
				C547.8,327.9,544.9,334.8,539.4,338.3L539.4,338.3z"/>
		</g>
	</g>
</g>
</svg>
